<svg width="20" height="20" viewBox="0 0 20 20" fill="none" xmlns="http://www.w3.org/2000/svg">
<g id="category" clip-path="url(#clip0_135_911)">
<rect width="20" height="20" fill="white" fill-opacity="0.01"/>
<path id="Vector" d="M9.29177 2.83333L6.19177 7.9C5.8501 8.45 6.2501 9.16667 6.9001 9.16667H13.0918C13.7418 9.16667 14.1418 8.45 13.8001 7.9L10.7084 2.83333C10.3834 2.3 9.61677 2.3 9.29177 2.83333Z" fill="black"/>
<path id="Vector_2" d="M14.5835 18.3333C16.6546 18.3333 18.3335 16.6544 18.3335 14.5833C18.3335 12.5123 16.6546 10.8333 14.5835 10.8333C12.5124 10.8333 10.8335 12.5123 10.8335 14.5833C10.8335 16.6544 12.5124 18.3333 14.5835 18.3333Z" fill="black"/>
<path id="Vector_3" d="M3.33333 17.9167H8.33333C8.79167 17.9167 9.16667 17.5417 9.16667 17.0833V12.0833C9.16667 11.625 8.79167 11.25 8.33333 11.25H3.33333C2.875 11.25 2.5 11.625 2.5 12.0833V17.0833C2.5 17.5417 2.875 17.9167 3.33333 17.9167Z" fill="black"/>
</g>
<defs>
<clipPath id="clip0_135_911">
<rect width="20" height="20" fill="white"/>
</clipPath>
</defs>
</svg>
