<svg width="20" height="20" viewBox="0 0 20 20" fill="none" xmlns="http://www.w3.org/2000/svg">
<g id="file_copy" clip-path="url(#clip0_135_939)">
<rect width="20" height="20" fill="white" fill-opacity="0.01"/>
<path id="Vector" d="M12.4998 0.833336H3.33317C2.4165 0.833336 1.6665 1.58334 1.6665 2.5V13.3333C1.6665 13.7917 2.0415 14.1667 2.49984 14.1667C2.95817 14.1667 3.33317 13.7917 3.33317 13.3333V3.33334C3.33317 2.875 3.70817 2.5 4.1665 2.5H12.4998C12.9582 2.5 13.3332 2.125 13.3332 1.66667C13.3332 1.20834 12.9582 0.833336 12.4998 0.833336ZM12.9915 4.65834L17.0165 8.68334C17.3248 8.99167 17.4998 9.41667 17.4998 9.85833V17.5C17.4998 18.4167 16.7498 19.1667 15.8332 19.1667H6.65817C5.7415 19.1667 4.99984 18.4167 4.99984 17.5L5.00817 5.83334C5.00817 4.91667 5.74984 4.16667 6.6665 4.16667H11.8082C12.2498 4.16667 12.6748 4.34167 12.9915 4.65834ZM12.4998 10H16.2498L11.6665 5.41667V9.16667C11.6665 9.625 12.0415 10 12.4998 10Z" fill="black"/>
</g>
<defs>
<clipPath id="clip0_135_939">
<rect width="20" height="20" fill="white"/>
</clipPath>
</defs>
</svg>
