<svg width="20" height="16" viewBox="0 0 20 16" fill="none" xmlns="http://www.w3.org/2000/svg">
<g id="Frame" clip-path="url(#clip0_135_927)">
<rect width="18.3333" height="15" transform="translate(0.868652 0.5)" fill="white" fill-opacity="0.01"/>
<path id="Vector" d="M19.1913 10.8552C19.1836 10.4566 19.0985 10.0632 18.9405 9.69655C18.7348 9.24727 18.3967 8.87005 17.9706 8.61436C17.5445 8.35868 17.0503 8.23648 16.5528 8.26379C16.0721 8.26379 15.5915 8.26379 15.1108 8.26379H14.3167C14.0525 7.82992 13.6815 7.46947 13.2383 7.21618C12.7951 6.96289 12.2943 6.82504 11.7827 6.81552C10.696 6.76379 9.55698 6.75862 8.39711 6.81552C7.87217 6.81485 7.35592 6.94827 6.8983 7.20288C6.44067 7.45749 6.05714 7.82469 5.78478 8.26896H3.5434C3.04241 8.26334 2.54872 8.3882 2.11184 8.63103C1.71569 8.84915 1.38891 9.17242 1.16829 9.56446C0.947682 9.95649 0.841999 10.4017 0.86315 10.85C0.86315 11.4914 0.86315 12.1276 0.86315 12.769V13.6586C0.843776 13.788 0.855277 13.9201 0.896737 14.0444C0.938197 14.1686 1.00847 14.2815 1.10191 14.374C1.19535 14.4665 1.30938 14.536 1.43485 14.5771C1.56033 14.6181 1.69377 14.6295 1.82449 14.6103H5.36158C5.35035 14.7331 5.36714 14.8568 5.41072 14.9723C5.45429 15.0878 5.52354 15.1921 5.61334 15.2776C5.70313 15.363 5.81118 15.4273 5.92948 15.4658C6.04779 15.5043 6.17332 15.516 6.29679 15.5H10.4243C10.8788 15.5 11.1819 15.5 11.3856 15.5C11.5144 15.5072 11.6435 15.5072 11.7722 15.5H13.9039C14.0198 15.506 14.1358 15.4877 14.2441 15.4464C14.3524 15.405 14.4507 15.3415 14.5326 15.26C14.6144 15.1785 14.678 15.0808 14.7191 14.9733C14.7602 14.8658 14.778 14.751 14.7712 14.6362L18.2978 14.6103C18.4209 14.6224 18.5452 14.6073 18.6617 14.5661C18.7781 14.5249 18.8839 14.4586 18.9714 14.372C19.0589 14.2854 19.1258 14.1807 19.1675 14.0654C19.2091 13.9501 19.2244 13.827 19.2122 13.7052V12.95C19.2069 12.2569 19.2069 11.5483 19.1913 10.8552ZM5.36158 12.9914H2.49324V10.9224C2.4927 10.7957 2.50496 10.6692 2.52982 10.5448C2.57012 10.3611 2.67435 10.1973 2.82429 10.0819C2.97422 9.9666 3.16032 9.90708 3.35009 9.91379C3.91435 9.88275 4.49951 9.88793 5.10557 9.91379H5.36158V12.9914ZM10.4608 13.8965H10.2884H6.99168V12.4172C6.99168 11.5276 6.99168 10.6328 6.99168 9.7431C6.9789 9.53018 7.02521 9.31785 7.12559 9.12913C7.22598 8.9404 7.37661 8.78246 7.56117 8.67241C7.87389 8.47675 8.23617 8.37274 8.6061 8.37241C9.53087 8.37241 10.5131 8.37241 11.4849 8.37241C11.9478 8.35606 12.3986 8.52153 12.7388 8.83276C12.8309 8.90832 12.9042 9.00391 12.953 9.11207C13.0297 9.45176 13.07 9.7985 13.0732 10.1466C13.0732 10.8138 13.0732 11.4862 13.0732 12.1586V13.3948C13.076 13.5315 13.0865 13.6679 13.1045 13.8034C13.1045 13.8034 13.1045 13.8552 13.1045 13.881L10.4608 13.8965ZM17.5716 12.9862H14.766V9.88275H15.0168C15.5392 9.88275 16.1244 9.88275 16.6677 9.88275C16.8716 9.90965 17.0683 9.9746 17.2477 10.0741C17.3596 10.1283 17.4515 10.2158 17.5105 10.3243C17.5696 10.4329 17.5928 10.557 17.5768 10.6793C17.5768 11.331 17.5768 11.9879 17.5768 12.6552L17.5716 12.9862ZM10.0638 0.499995C9.48821 0.499995 8.92556 0.668968 8.44699 0.98554C7.96842 1.30211 7.59542 1.75207 7.37516 2.27851C7.1549 2.80495 7.09728 3.38423 7.20956 3.9431C7.32185 4.50196 7.59901 5.01531 8.006 5.41823C8.41299 5.82115 8.93153 6.09554 9.49604 6.20671C10.0605 6.31787 10.6457 6.26082 11.1774 6.04276C11.7092 5.82471 12.1637 5.45544 12.4835 4.98165C12.8032 4.50787 12.9739 3.95085 12.9739 3.38103C12.976 3.00212 12.9021 2.62655 12.7566 2.27608C12.6111 1.92561 12.3968 1.60718 12.1262 1.33924C11.8555 1.0713 11.5339 0.859169 11.1799 0.715112C10.8259 0.571055 10.4465 0.497937 10.0638 0.499995V0.499995ZM10.9729 4.28103C10.8545 4.40057 10.713 4.49519 10.5568 4.55919C10.4005 4.62319 10.2328 4.65525 10.0638 4.65344V4.65344C9.73639 4.63279 9.42924 4.48948 9.20477 4.25264C8.98029 4.0158 8.85536 3.70322 8.85536 3.37844C8.85536 3.05367 8.98029 2.74109 9.20477 2.50425C9.42924 2.26741 9.73639 2.1241 10.0638 2.10345C10.4029 2.1075 10.7269 2.24302 10.9662 2.48091C11.2055 2.71881 11.3411 3.04011 11.3438 3.37586C11.3446 3.54385 11.3117 3.71033 11.2472 3.86569C11.1826 4.02105 11.0876 4.16221 10.9676 4.28103H10.9729ZM4.70328 3.16379C4.09248 3.16559 3.50692 3.40527 3.07318 3.83103C2.75019 4.14985 2.52979 4.55621 2.43979 4.99887C2.34978 5.44154 2.3942 5.90068 2.56744 6.31839C2.74068 6.73609 3.03499 7.09365 3.41323 7.34597C3.79148 7.59829 4.23673 7.73408 4.69283 7.73621V7.73621C4.99609 7.73553 5.29625 7.67572 5.57616 7.5602C5.85608 7.44468 6.11027 7.2757 6.32422 7.06293C6.53817 6.85016 6.7077 6.59775 6.82312 6.32011C6.93854 6.04248 6.99759 5.74505 6.9969 5.44482C6.99554 5.14391 6.93431 4.84622 6.81673 4.56873C6.69914 4.29125 6.52751 4.03941 6.31161 3.8276C6.09572 3.61578 5.83979 3.44814 5.55846 3.33425C5.27712 3.22035 4.97587 3.16243 4.67192 3.16379H4.70328ZM5.1735 5.94138C5.1122 6.00589 5.03745 6.05643 4.95445 6.08948C4.87145 6.12253 4.78217 6.13729 4.69283 6.13275C4.50992 6.13275 4.3345 6.06082 4.20517 5.93278C4.07583 5.80474 4.00317 5.63108 4.00317 5.45C4.00317 5.26892 4.07583 5.09526 4.20517 4.96722C4.3345 4.83917 4.50992 4.76724 4.69283 4.76724V4.76724C4.82955 4.76891 4.96269 4.81079 5.07532 4.88754C5.18795 4.9643 5.27499 5.07246 5.32539 5.1983C5.37579 5.32414 5.38725 5.46197 5.35835 5.59428C5.32944 5.72659 5.26146 5.8474 5.16304 5.94138H5.1735ZM17.0335 3.83103C16.8205 3.61741 16.5666 3.44794 16.2867 3.33249C16.0069 3.21704 15.7066 3.15793 15.4034 3.15862C14.8663 3.15632 14.345 3.33863 13.9285 3.67443C13.512 4.01022 13.2261 4.47869 13.1197 4.9999C13.0132 5.5211 13.0927 6.06274 13.3446 6.53237C13.5966 7.002 14.0054 7.37052 14.5012 7.57504C14.997 7.77956 15.5491 7.80741 16.0634 7.65383C16.5776 7.50025 17.0221 7.17476 17.3209 6.73291C17.6198 6.29106 17.7545 5.76024 17.7021 5.23102C17.6496 4.7018 17.4133 4.20699 17.0335 3.83103V3.83103ZM15.8945 5.92586C15.7632 6.04442 15.5907 6.10821 15.413 6.10392C15.2353 6.09964 15.0662 6.02761 14.9408 5.90285C14.8155 5.7781 14.7436 5.61026 14.7403 5.43434C14.7369 5.25842 14.8023 5.08799 14.9227 4.95861C15.0197 4.86527 15.1423 4.80224 15.2752 4.77735C15.4081 4.75246 15.5455 4.76682 15.6703 4.81864C15.795 4.87046 15.9016 4.95746 15.9768 5.0688C16.0519 5.18014 16.0924 5.3109 16.093 5.44482C16.0951 5.53498 16.0786 5.62461 16.0445 5.70822C16.0103 5.79182 15.9593 5.86765 15.8945 5.93103V5.92586ZM12.6239 10.1983C12.6307 10.4156 12.5521 10.627 12.4044 10.7879L11.6678 11.6259L10.9833 12.4069C10.8214 12.5931 10.6646 12.7845 10.5079 12.9759L10.3877 13.1207C10.3141 13.211 10.2221 13.2849 10.1177 13.3375C10.0132 13.3901 9.8987 13.4202 9.78165 13.4259V13.4259C9.66644 13.4283 9.55193 13.4075 9.44506 13.3648C9.33819 13.3222 9.24119 13.2585 9.15991 13.1776C8.67925 12.7017 8.19335 12.2155 7.7179 11.7293C7.64346 11.6549 7.58455 11.5668 7.54452 11.4698C7.5045 11.3729 7.48414 11.2692 7.48463 11.1644C7.48511 11.0597 7.50642 10.9562 7.54735 10.8596C7.58827 10.763 7.648 10.6754 7.72313 10.6017C7.79826 10.528 7.88731 10.4697 7.98521 10.4301C8.08311 10.3904 8.18794 10.3703 8.2937 10.3708C8.39947 10.3713 8.50409 10.3924 8.60162 10.4329C8.69915 10.4734 8.78766 10.5325 8.8621 10.6069L9.56221 11.2948L9.69805 11.4293L11.0042 9.95L11.1975 9.73276C11.266 9.65091 11.3503 9.58337 11.4454 9.53405C11.5405 9.48473 11.6445 9.45462 11.7515 9.44547C11.8584 9.43633 11.9661 9.44833 12.0684 9.48078C12.1706 9.51322 12.2653 9.56547 12.347 9.63448C12.4306 9.70501 12.4984 9.79204 12.5461 9.89002C12.5938 9.98799 12.6203 10.0948 12.6239 10.2034V10.1983Z" fill="black"/>
</g>
<defs>
<clipPath id="clip0_135_927">
<rect width="18.3333" height="15" fill="white" transform="translate(0.868652 0.5)"/>
</clipPath>
</defs>
</svg>
