<svg width="32" height="32" viewBox="0 0 32 32" fill="none" xmlns="http://www.w3.org/2000/svg">
<g id="info_outline" clip-path="url(#clip0_135_740)">
<rect width="32" height="32" fill="white"/>
<path id="Vector" d="M14.6665 9.33335H17.3332V12H14.6665V9.33335ZM15.9998 22.6667C16.7332 22.6667 17.3332 22.0667 17.3332 21.3334V16C17.3332 15.2667 16.7332 14.6667 15.9998 14.6667C15.2665 14.6667 14.6665 15.2667 14.6665 16V21.3334C14.6665 22.0667 15.2665 22.6667 15.9998 22.6667ZM15.9998 2.66669C8.63984 2.66669 2.6665 8.64002 2.6665 16C2.6665 23.36 8.63984 29.3334 15.9998 29.3334C23.3598 29.3334 29.3332 23.36 29.3332 16C29.3332 8.64002 23.3598 2.66669 15.9998 2.66669ZM15.9998 26.6667C10.1198 26.6667 5.33317 21.88 5.33317 16C5.33317 10.12 10.1198 5.33335 15.9998 5.33335C21.8798 5.33335 26.6665 10.12 26.6665 16C26.6665 21.88 21.8798 26.6667 15.9998 26.6667Z" fill="black"/>
</g>
<defs>
<clipPath id="clip0_135_740">
<rect width="32" height="32" fill="white"/>
</clipPath>
</defs>
</svg>
