<svg width="20" height="20" viewBox="0 0 20 20" fill="none" xmlns="http://www.w3.org/2000/svg">
<g id="sports_esports" clip-path="url(#clip0_135_883)">
<rect width="20" height="20" fill="white" fill-opacity="0.01"/>
<g id="Group">
<g id="Group_2">
<path id="Vector" d="M17.9832 13.4083L17.0749 7.02499C16.8415 5.38332 15.4332 4.16666 13.7749 4.16666H6.22485C4.56652 4.16666 3.15818 5.38332 2.92485 7.02499L2.01652 13.4083C1.83318 14.6917 2.82485 15.8333 4.11652 15.8333C4.68318 15.8333 5.21652 15.6083 5.61652 15.2083L7.49985 13.3333H12.4999L14.3749 15.2083C14.7749 15.6083 15.3165 15.8333 15.8749 15.8333C17.1749 15.8333 18.1665 14.6917 17.9832 13.4083ZM9.16652 9.16666H7.49985V10.8333H6.66652V9.16666H4.99985V8.33332H6.66652V6.66666H7.49985V8.33332H9.16652V9.16666ZM12.4999 8.33332C12.0415 8.33332 11.6665 7.95832 11.6665 7.49999C11.6665 7.04166 12.0415 6.66666 12.4999 6.66666C12.9582 6.66666 13.3332 7.04166 13.3332 7.49999C13.3332 7.95832 12.9582 8.33332 12.4999 8.33332ZM14.1665 10.8333C13.7082 10.8333 13.3332 10.4583 13.3332 9.99999C13.3332 9.54166 13.7082 9.16666 14.1665 9.16666C14.6249 9.16666 14.9999 9.54166 14.9999 9.99999C14.9999 10.4583 14.6249 10.8333 14.1665 10.8333Z" fill="black"/>
</g>
</g>
</g>
<defs>
<clipPath id="clip0_135_883">
<rect width="20" height="20" fill="white"/>
</clipPath>
</defs>
</svg>
