<svg width="20" height="20" viewBox="0 0 20 20" fill="none" xmlns="http://www.w3.org/2000/svg">
<g id="admin_panel_settings" clip-path="url(#clip0_135_847)">
<g id="Group">
<g id="Group_2">
<path id="Vector" d="M14.1667 9.16667C14.45 9.16667 14.725 9.20001 15 9.24167V6.31667C15 5.65001 14.6083 5.05001 14 4.79167L9.41667 2.79167C8.99167 2.60834 8.50833 2.60834 8.08333 2.79167L3.5 4.79167C2.89167 5.05834 2.5 5.65834 2.5 6.31667V9.31667C2.5 13.1 5.16667 16.6417 8.75 17.5C9.20833 17.3917 9.65 17.2333 10.0833 17.0417C9.50833 16.225 9.16667 15.2333 9.16667 14.1667C9.16667 11.4083 11.4083 9.16667 14.1667 9.16667Z" fill="black"/>
<path id="Vector_2" d="M14.1668 10.8333C12.3252 10.8333 10.8335 12.325 10.8335 14.1667C10.8335 16.0083 12.3252 17.5 14.1668 17.5C16.0085 17.5 17.5002 16.0083 17.5002 14.1667C17.5002 12.325 16.0085 10.8333 14.1668 10.8333ZM14.1668 11.9833C14.6835 11.9833 15.1002 12.4083 15.1002 12.9167C15.1002 13.425 14.6752 13.85 14.1668 13.85C13.6585 13.85 13.2335 13.425 13.2335 12.9167C13.2335 12.4083 13.6502 11.9833 14.1668 11.9833ZM14.1668 16.4583C13.3918 16.4583 12.7168 16.075 12.3002 15.4833C12.3418 14.8833 13.5585 14.5833 14.1668 14.5833C14.7752 14.5833 15.9918 14.8833 16.0335 15.4833C15.6168 16.075 14.9418 16.4583 14.1668 16.4583Z" fill="black"/>
</g>
</g>
</g>
<defs>
<clipPath id="clip0_135_847">
<rect width="20" height="20" fill="white"/>
</clipPath>
</defs>
</svg>
