<svg width="178" height="178" viewBox="0 0 178 178" fill="none" xmlns="http://www.w3.org/2000/svg">
<g id="Frame 6354624">
<path id="Ellipse 281" d="M178 89C178 138.153 138.153 178 89 178C39.8467 178 0 138.153 0 89C0 39.8467 39.8467 0 89 0C138.153 0 178 39.8467 178 89ZM12.46 89C12.46 131.272 46.7281 165.54 89 165.54C131.272 165.54 165.54 131.272 165.54 89C165.54 46.7281 131.272 12.46 89 12.46C46.7281 12.46 12.46 46.7281 12.46 89Z" fill="#EBEBEB"/>
<path id="Ellipse 285" d="M156 89C156 125.451 126.227 155 89.5 155C52.7731 155 23 125.451 23 89C23 52.5492 52.7731 23 89.5 23C126.227 23 156 52.5492 156 89ZM36.3 89C36.3 118.161 60.1185 141.8 89.5 141.8C118.882 141.8 142.7 118.161 142.7 89C142.7 59.8394 118.882 36.2 89.5 36.2C60.1185 36.2 36.3 59.8394 36.3 89Z" fill="#EBEBEB"/>
<path id="Ellipse 287" d="M131 89C131 111.644 112.42 130 89.5 130C66.5802 130 48 111.644 48 89C48 66.3563 66.5802 48 89.5 48C112.42 48 131 66.3563 131 89ZM60.035 89C60.035 105.077 73.2269 118.11 89.5 118.11C105.773 118.11 118.965 105.077 118.965 89C118.965 72.923 105.773 59.89 89.5 59.89C73.2269 59.89 60.035 72.923 60.035 89Z" fill="#EBEBEB"/>
<path id="Ellipse 284" d="M89 0C107.894 2.25304e-07 126.297 6.01265 141.546 17.1676C156.795 28.3225 168.099 44.0408 173.821 62.0472C179.542 80.0536 179.385 99.4137 173.372 117.325C167.359 135.236 155.802 150.769 140.374 161.675C124.946 172.581 106.448 178.295 87.5565 177.988C68.6654 177.682 50.3619 171.372 35.2957 159.971C20.2295 148.57 9.18228 132.67 3.75333 114.574C-1.67562 96.4767 -1.20463 77.1217 5.09812 59.3104L16.8444 63.4669C11.424 78.7847 11.019 95.43 15.6879 110.993C20.3568 126.557 29.8573 140.23 42.8143 150.035C55.7712 159.84 71.5122 165.266 87.7586 165.53C104.005 165.793 119.914 160.88 133.182 151.501C146.45 142.121 156.389 128.763 161.56 113.359C166.731 97.9558 166.866 81.3061 161.946 65.8206C157.025 50.3351 147.304 36.8173 134.19 27.2241C121.075 17.6309 105.249 12.46 89 12.46L89 0Z" fill="#4C19C5"/>
<path id="Ellipse 286" d="M89.5 23C101.435 23 113.151 26.188 123.417 32.2295C133.683 38.271 142.122 46.9434 147.848 57.3367C153.573 67.7301 156.375 79.4613 155.96 91.2996C155.544 103.138 151.925 114.647 145.484 124.619C139.043 134.592 130.016 142.66 119.351 147.977C108.686 153.294 96.775 155.665 84.8688 154.84C72.9625 154.015 61.4994 150.025 51.682 143.288C41.8647 136.552 34.055 127.317 29.0723 116.553L41.1578 111.043C45.144 119.654 51.3917 127.042 59.2456 132.431C67.0995 137.82 76.27 141.012 85.795 141.672C95.32 142.332 104.848 140.435 113.381 136.182C121.913 131.928 129.134 125.473 134.287 117.495C139.44 109.518 142.335 100.31 142.668 90.8397C143 81.369 140.759 71.9841 136.178 63.6694C131.597 55.3547 124.846 48.4168 116.633 43.5836C108.42 38.7504 99.0482 36.2 89.5 36.2L89.5 23Z" fill="#AC0972"/>
<path id="Ellipse 288" d="M89.5 48C99.2125 48 108.617 51.3655 116.077 57.5106C123.537 63.6557 128.578 72.1909 130.324 81.6301C132.07 91.0694 130.409 100.815 125.632 109.169C120.854 117.523 113.261 123.957 104.176 127.35C95.0916 130.744 85.0897 130.882 75.9125 127.74C66.7353 124.599 58.9642 118.376 53.9522 110.157C48.9403 101.938 47.0051 92.2422 48.4837 82.7585C49.9622 73.2749 54.7608 64.6039 62.0439 58.2556L70.0062 67.1715C64.8352 71.6788 61.4282 77.8351 60.3784 84.5686C59.3286 91.302 60.7026 98.1859 64.2611 104.022C67.8196 109.857 73.3371 114.275 79.8529 116.506C86.3687 118.736 93.47 118.638 99.9203 116.229C106.371 113.819 111.761 109.251 115.153 103.32C118.546 97.3883 119.725 90.4692 118.485 83.7674C117.246 77.0655 113.666 71.0055 108.37 66.6425C103.073 62.2795 96.3959 59.89 89.5 59.89L89.5 48Z" fill="#87ED3E"/>
</g>
</svg>
