<svg width="20" height="20" viewBox="0 0 20 20" fill="none" xmlns="http://www.w3.org/2000/svg">
<g id="insights" clip-path="url(#clip0_135_893)">
<rect width="20" height="20" fill="white" fill-opacity="0.01"/>
<g id="Group">
<g id="Group_2">
<path id="Vector" d="M17.5002 6.66667C16.2918 6.66667 15.6168 7.86667 15.8918 8.75834L12.9335 11.725C12.6835 11.65 12.3168 11.65 12.0668 11.725L9.94183 9.60001C10.2252 8.70834 9.55016 7.50001 8.3335 7.50001C7.12516 7.50001 6.44183 8.70001 6.72516 9.60001L2.92516 13.3917C2.0335 13.1167 0.833496 13.7917 0.833496 15C0.833496 15.9167 1.5835 16.6667 2.50016 16.6667C3.7085 16.6667 4.3835 15.4667 4.1085 14.575L7.90016 10.775C8.15016 10.85 8.51683 10.85 8.76683 10.775L10.8918 12.9C10.6085 13.7917 11.2835 15 12.5002 15C13.7085 15 14.3918 13.8 14.1085 12.9L17.0752 9.94167C17.9668 10.2167 19.1668 9.54167 19.1668 8.33334C19.1668 7.41667 18.4168 6.66667 17.5002 6.66667Z" fill="black"/>
<path id="Vector_2" d="M12.5 7.5L13.2833 5.775L15 5L13.2833 4.225L12.5 2.5L11.7333 4.225L10 5L11.7333 5.775L12.5 7.5Z" fill="black"/>
<path id="Vector_3" d="M2.91683 9.16667L3.3335 7.5L5.00016 7.08333L3.3335 6.66667L2.91683 5L2.50016 6.66667L0.833496 7.08333L2.50016 7.5L2.91683 9.16667Z" fill="black"/>
</g>
</g>
</g>
<defs>
<clipPath id="clip0_135_893">
<rect width="20" height="20" fill="white"/>
</clipPath>
</defs>
</svg>
