<svg width="20" height="20" viewBox="0 0 20 20" fill="none" xmlns="http://www.w3.org/2000/svg">
<g id="monetization_on" clip-path="url(#clip0_135_877)">
<rect width="20" height="20" fill="white" fill-opacity="0.01"/>
<path id="Vector" d="M9.99984 1.66666C5.39984 1.66666 1.6665 5.39999 1.6665 9.99999C1.6665 14.6 5.39984 18.3333 9.99984 18.3333C14.5998 18.3333 18.3332 14.6 18.3332 9.99999C18.3332 5.39999 14.5998 1.66666 9.99984 1.66666ZM11.1748 15.075V15.5583C11.1748 16.1667 10.6748 16.6667 10.0665 16.6667H10.0582C9.44984 16.6667 8.94984 16.1667 8.94984 15.5583V15.0583C7.8415 14.825 6.85817 14.2167 6.4415 13.1917C6.24984 12.7333 6.60817 12.225 7.10817 12.225H7.30817C7.6165 12.225 7.8665 12.4333 7.98317 12.725C8.22484 13.35 8.85817 13.7833 10.0748 13.7833C11.7082 13.7833 12.0748 12.9667 12.0748 12.4583C12.0748 11.7667 11.7082 11.1167 9.84984 10.675C7.78317 10.175 6.3665 9.32499 6.3665 7.61666C6.3665 6.18332 7.52484 5.24999 8.95817 4.94166V4.44166C8.95817 3.83332 9.45817 3.33332 10.0665 3.33332H10.0748C10.6832 3.33332 11.1832 3.83332 11.1832 4.44166V4.95832C12.3332 5.24166 13.0582 5.95832 13.3748 6.84166C13.5415 7.29999 13.1915 7.78332 12.6998 7.78332H12.4832C12.1748 7.78332 11.9248 7.56666 11.8415 7.26666C11.6498 6.63332 11.1248 6.22499 10.0748 6.22499C8.82484 6.22499 8.07484 6.79166 8.07484 7.59166C8.07484 8.29166 8.6165 8.74999 10.2998 9.18332C11.9832 9.61666 13.7832 10.3417 13.7832 12.4417C13.7665 13.9667 12.6248 14.8 11.1748 15.075V15.075Z" fill="black"/>
</g>
<defs>
<clipPath id="clip0_135_877">
<rect width="20" height="20" fill="white"/>
</clipPath>
</defs>
</svg>
