<svg width="20" height="20" viewBox="0 0 20 20" fill="none" xmlns="http://www.w3.org/2000/svg">
<g id="multiline_chart" clip-path="url(#clip0_135_905)">
<rect width="20" height="20" fill="white" fill-opacity="0.01"/>
<path id="Vector" d="M17.7999 5.23334L17.7499 5.18334C17.4249 4.85834 16.8915 4.87501 16.5915 5.21667L14.7749 7.25834C13.0665 5.33334 10.6915 4.16667 8.0082 4.16667C5.92487 4.16667 3.9832 4.89167 2.3832 6.08334C1.99154 6.37501 1.94987 6.95001 2.29154 7.29167L2.34154 7.34167C2.61654 7.61667 3.0582 7.66667 3.36654 7.43334C4.69154 6.43334 6.2832 5.83334 8.0082 5.83334C10.2915 5.83334 12.2499 6.88334 13.6499 8.53334L11.2499 11.2333L8.5082 8.49167C8.1832 8.16667 7.6582 8.16667 7.3332 8.49167L2.2332 13.6C1.92487 13.9083 1.92487 14.4167 2.2332 14.725L2.3582 14.85C2.66654 15.1583 3.17487 15.1583 3.4832 14.85L7.91654 10.4083L10.6249 13.1167C10.9665 13.4583 11.5165 13.4417 11.8332 13.0833L14.6249 9.95C15.1415 10.8833 15.5249 11.9417 15.7249 13.0583C15.7915 13.45 16.1165 13.7417 16.5165 13.7417H16.5915C17.0915 13.7417 17.4665 13.2833 17.3749 12.7917C17.1082 11.25 16.5582 9.84167 15.7999 8.62501L17.8332 6.33334C18.1165 6.01667 18.0999 5.53334 17.7999 5.23334V5.23334Z" fill="black"/>
</g>
<defs>
<clipPath id="clip0_135_905">
<rect width="20" height="20" fill="white"/>
</clipPath>
</defs>
</svg>
