<svg width="20" height="20" viewBox="0 0 20 20" fill="none" xmlns="http://www.w3.org/2000/svg">
<g id="pie_chart_outline" clip-path="url(#clip0_135_841)">
<path id="Vector" d="M9.99984 1.66666C5.4165 1.66666 1.6665 5.41666 1.6665 9.99999C1.6665 14.5833 5.4165 18.3333 9.99984 18.3333C14.5832 18.3333 18.3332 14.5833 18.3332 9.99999C18.3332 5.41666 14.5832 1.66666 9.99984 1.66666ZM10.8332 3.39166C13.8415 3.76666 16.2332 6.16666 16.6082 9.16666H11.6665C11.2082 9.16666 10.8332 8.79166 10.8332 8.33332V3.39166ZM3.33317 9.99999C3.33317 6.61666 5.8915 3.79999 9.1665 3.39166V16.6167C5.8915 16.2 3.33317 13.3833 3.33317 9.99999V9.99999ZM10.8332 16.6083V11.6667C10.8332 11.2083 11.2082 10.8333 11.6665 10.8333H16.6082C16.2332 13.8417 13.8415 16.2333 10.8332 16.6083Z" fill="black"/>
</g>
<defs>
<clipPath id="clip0_135_841">
<rect width="20" height="20" fill="white"/>
</clipPath>
</defs>
</svg>
