<svg width="20" height="20" viewBox="0 0 20 20" fill="none" xmlns="http://www.w3.org/2000/svg">
<g id="rule" clip-path="url(#clip0_135_932)">
<rect width="20" height="20" fill="white" fill-opacity="0.01"/>
<g id="Group">
<path id="Vector" d="M13.1915 8.575L11.4248 6.80833C11.0998 6.48333 11.0998 5.95833 11.4248 5.63333C11.7498 5.30833 12.2748 5.30833 12.5998 5.63333L13.7748 6.80833L16.7248 3.85833C17.0498 3.53333 17.5748 3.53333 17.8998 3.85833C18.2248 4.18333 18.2248 4.70833 17.8998 5.03333L14.3665 8.56667C14.0415 8.9 13.5165 8.9 13.1915 8.575ZM8.33317 5.83333H2.49984C2.0415 5.83333 1.6665 6.20833 1.6665 6.66667C1.6665 7.125 2.0415 7.5 2.49984 7.5H8.33317C8.7915 7.5 9.1665 7.125 9.1665 6.66667C9.1665 6.20833 8.7915 5.83333 8.33317 5.83333ZM16.9082 10.5917C16.5832 10.2667 16.0582 10.2667 15.7332 10.5917L14.1665 12.1583L12.5998 10.5917C12.2748 10.2667 11.7498 10.2667 11.4248 10.5917C11.0998 10.9167 11.0998 11.4417 11.4248 11.7667L12.9915 13.3333L11.4248 14.9C11.0998 15.225 11.0998 15.75 11.4248 16.075C11.7498 16.4 12.2748 16.4 12.5998 16.075L14.1665 14.5083L15.7332 16.075C16.0582 16.4 16.5832 16.4 16.9082 16.075C17.2332 15.75 17.2332 15.225 16.9082 14.9L15.3415 13.3333L16.9082 11.7667C17.2332 11.4417 17.2332 10.9167 16.9082 10.5917ZM8.33317 12.5H2.49984C2.0415 12.5 1.6665 12.875 1.6665 13.3333C1.6665 13.7917 2.0415 14.1667 2.49984 14.1667H8.33317C8.7915 14.1667 9.1665 13.7917 9.1665 13.3333C9.1665 12.875 8.7915 12.5 8.33317 12.5Z" fill="black"/>
</g>
</g>
<defs>
<clipPath id="clip0_135_932">
<rect width="20" height="20" fill="white"/>
</clipPath>
</defs>
</svg>
