<svg width="32" height="32" viewBox="0 0 32 32" fill="none" xmlns="http://www.w3.org/2000/svg">
<g id="settings" clip-path="url(#clip0_135_737)">
<rect width="32" height="32" fill="white"/>
<path id="Vector" d="M25.9065 17.3067C25.9598 16.88 25.9998 16.4534 25.9998 16C25.9998 15.5467 25.9598 15.12 25.9065 14.6934L28.7198 12.4934C28.9731 12.2934 29.0398 11.9334 28.8798 11.64L26.2131 7.02669C26.0531 6.73335 25.6931 6.62669 25.3998 6.73335L22.0798 8.06669C21.3865 7.53335 20.6398 7.09335 19.8265 6.76002L19.3198 3.22669C19.2798 2.90669 18.9998 2.66669 18.6665 2.66669H13.3331C12.9998 2.66669 12.7198 2.90669 12.6798 3.22669L12.1731 6.76002C11.3598 7.09335 10.6131 7.54669 9.91979 8.06669L6.59979 6.73335C6.29312 6.61335 5.94645 6.73335 5.78645 7.02669L3.11979 11.64C2.94645 11.9334 3.02645 12.2934 3.27979 12.4934L6.09312 14.6934C6.03979 15.12 5.99979 15.56 5.99979 16C5.99979 16.44 6.03979 16.88 6.09312 17.3067L3.27979 19.5067C3.02645 19.7067 2.95979 20.0667 3.11979 20.36L5.78645 24.9734C5.94645 25.2667 6.30645 25.3734 6.59979 25.2667L9.91979 23.9334C10.6131 24.4667 11.3598 24.9067 12.1731 25.24L12.6798 28.7734C12.7198 29.0934 12.9998 29.3334 13.3331 29.3334H18.6665C18.9998 29.3334 19.2798 29.0934 19.3198 28.7734L19.8265 25.24C20.6398 24.9067 21.3865 24.4534 22.0798 23.9334L25.3998 25.2667C25.7065 25.3867 26.0531 25.2667 26.2131 24.9734L28.8798 20.36C29.0398 20.0667 28.9731 19.7067 28.7198 19.5067L25.9065 17.3067V17.3067ZM15.9998 20.6667C13.4265 20.6667 11.3331 18.5734 11.3331 16C11.3331 13.4267 13.4265 11.3334 15.9998 11.3334C18.5731 11.3334 20.6665 13.4267 20.6665 16C20.6665 18.5734 18.5731 20.6667 15.9998 20.6667Z" fill="black"/>
</g>
<defs>
<clipPath id="clip0_135_737">
<rect width="32" height="32" fill="white"/>
</clipPath>
</defs>
</svg>
