<svg width="32" height="32" viewBox="0 0 32 32" fill="none" xmlns="http://www.w3.org/2000/svg">
<g id="drag_handle three" clip-path="url(#clip0_135_726)">
<rect width="32" height="32" fill="white"/>
<g id="Vector">
<path d="M25.3335 9.33331H6.66683C5.9335 9.33331 5.3335 9.93331 5.3335 10.6666C5.3335 11.4 5.9335 12 6.66683 12H25.3335C26.0668 12 26.6668 11.4 26.6668 10.6666C26.6668 9.93331 26.0668 9.33331 25.3335 9.33331ZM6.66683 17.3333H25.3335C26.0668 17.3333 26.6668 16.7333 26.6668 16C26.6668 15.2666 26.0668 14.6666 25.3335 14.6666H6.66683C5.9335 14.6666 5.3335 15.2666 5.3335 16C5.3335 16.7333 5.9335 17.3333 6.66683 17.3333Z" fill="black"/>
<path d="M25.3335 22.6666H6.66683C5.9335 22.6666 5.3335 22.0666 5.3335 21.3333C5.3335 20.6 5.9335 20 6.66683 20H25.3335C26.0668 20 26.6668 20.6 26.6668 21.3333C26.6668 22.0666 26.0668 22.6666 25.3335 22.6666Z" fill="black"/>
</g>
</g>
<defs>
<clipPath id="clip0_135_726">
<rect width="32" height="32" fill="white"/>
</clipPath>
</defs>
</svg>
